<?xml version="1.0" standalone="yes"?>
<svg xmlns="http://www.w3.org/2000/svg" width="838" height="701">
<path style="fill:#010101; stroke:none;" d="M0 0L0 298L95 282C110.017 163.174 190.056 60.2548 303 18.9468C329.562 9.23212 359.521 1.01892 388 1L353 0L274 0L0 0z"/>
<path style="fill:#ffffff; stroke:none;" d="M95 282L0 298C4.34894 316.309 28.9676 305.188 43 302.75C87.6551 294.992 132.488 287.729 177 279.197C333.746 249.152 491.577 222.535 649 196.247C686.693 189.953 724.436 183.415 762 176.389C778.063 173.384 795.137 175.33 801 158C776.679 158.502 750.972 166.085 727 170.25C719.806 171.5 706.04 176.853 699.105 174.357C694.39 172.66 692.372 165.004 690.138 161C684.173 150.307 677.373 139.859 670.116 130C647.868 99.7788 620.269 73.4208 589 52.6674C443.219 -44.089 242.037 -2.32092 145.333 143C118.323 183.589 98.8595 233.097 95 282z"/>
<path style="fill:#010101; stroke:none;" d="M437 0L437 1C516.466 1.00903 593.42 48.0892 646.985 103C661.215 117.587 673.544 134.66 684.189 152C687.518 157.422 692.292 171.9 698.213 174.393C705.13 177.305 719.757 171.73 727 170.424C751.048 166.089 776.598 159.048 801 158C799.271 161.696 798.125 166.809 794.775 169.4C787.015 175.405 767.653 175.289 758 176.919C720.958 183.173 684.047 190.199 647 196.414C491.167 222.556 335.504 250.387 180 278.424C135.043 286.53 89.8646 293.597 45 302.197C32.8025 304.535 5.42787 315.323 1 300L0 300L0 701L408 701L408 669L415 671C436.451 656.841 432.462 689.34 435 700L428 700C428 694.597 430.757 666.401 418.214 674.873C413.393 678.129 410.469 698.61 417.228 700.682C425.42 703.193 437.434 701 446 701L508 701L838 701L838 373C811.347 379.896 783.129 383.037 756 387.75C747.38 389.248 730.56 388.919 723.513 394.164C717.406 398.711 715.196 418.686 712.656 426C704.488 449.524 692.88 472.153 679.305 493C629.21 569.931 547.495 621.177 457 634.573C373.246 646.97 284.887 623.69 218 571.576C198.915 556.706 180.966 539.728 165.614 521C160.71 515.017 152.352 497.95 144.907 495.774C136.993 493.461 122.104 499.115 114 500.576C88.6869 505.14 63.2506 509.103 38 514L39 499C60.0651 498.565 82.2384 491.857 103 488.25C146.346 480.719 189.703 473.231 233 465.424C370.183 440.691 507.505 416.023 645 393.08C692.737 385.115 740.263 375.885 788 367.92C803.821 365.28 827.7 354.317 837 371L838 371L838 0L437 0M106 279C108.29 278.944 111.335 279.213 112.987 277.258C115.617 274.144 115.423 266.899 116.081 263C117.792 252.865 120.541 242.857 123.424 233C136.921 186.857 162.45 143.408 196.015 109C293.312 9.25909 451.331 -11.4523 570 62.4252C617.028 91.7025 651.139 131.758 679 179L686 178C682.466 165.73 673.681 154.502 666.667 144C644.537 110.867 615.058 83.0307 582 61C462.477 -18.652 300.226 -1.67273 197 97.0394C169.607 123.234 147.431 155.626 131.691 190C119.073 217.559 108.405 248.564 106 279M118 277C140.73 276.024 164.631 269.573 187 265.389C193.839 264.11 206.993 264.445 212.49 260.062C217.393 256.152 219.865 244.682 222.436 239C227.515 227.773 234.521 216.848 241.895 207C271.803 167.061 315.089 138.568 364 128.211C415.8 117.242 471.405 126.969 516 155.692C528.274 163.598 539.678 172.682 550 183C554.154 187.152 560.205 196.646 566.015 198.11C574.437 200.233 588.48 194.73 597 193.25C622.331 188.849 648.392 182.038 674 180C669.739 165.237 657.441 149.916 647.997 138C623.493 107.082 594.369 80.7593 560 61.1505C410.322 -24.2463 211.549 37.7504 141.14 197C130.149 221.859 120.159 249.684 118 277z"/>
<path style="fill:#ffffff; stroke:none;" d="M375 46L375 57L385 57L387 99L400 98L398 56L408 56L407 44L375 46M416 45L411 98L441 101L442 89L426 88C426.042 76.1158 432.672 78.8075 442 79L443 67L428 66C428.35 55.2479 437.244 58.8399 445 59L446 48L416 45M334 53L344 106L357 104L353 83C363.228 83.2867 361.909 94.7231 365 102L379 99C376.533 91.5882 375.419 78.7086 368 75C369.1 71.9822 369.904 69.2385 369.984 66C370.553 42.7678 348.555 51.1204 334 53M444 102C453.027 103.216 464.038 109.576 472.96 105.347C482.285 100.928 490.432 68.4692 484.297 60.1049C481.056 55.6866 461.667 46.6163 456.938 51.618C451.613 57.2492 450.812 72.5945 448.71 80C446.691 87.113 444.323 94.5901 444 102M309 60.5293C281.528 66.8355 301.063 120.562 325 114.39C350.886 107.716 331.995 55.2507 309 60.5293z"/>
<path style="fill:#010101; stroke:none;" d="M349 61L351 73C359.704 70.1802 357.904 61.29 349 61M467 63L459 95C469.79 94.6486 478.224 66.9435 467 63z"/>
<path style="fill:#ffffff; stroke:none;" d="M493 117C500.225 120.801 508.66 127.17 517 127.775C529.566 128.688 534.413 115.137 532 105C553.605 97.4282 537.674 70.2219 520.043 70.7114C515.428 70.8395 513.491 77.6722 511.691 81C505.513 92.4223 496.666 104.537 493 117z"/>
<path style="fill:#010101; stroke:none;" d="M310.317 72.1759C304.936 74.7552 314.617 94.0789 316.443 97.9954C317.46 100.177 319.588 104.337 322.694 102.824C328.242 100.122 318.2 80.0045 316.211 76.0193C315.182 73.9578 313.074 70.8546 310.317 72.1759z"/>
<path style="fill:#ffffff; stroke:none;" d="M253 89C255.774 104.371 270.406 123.013 279 136L291 130C288.996 125.211 282.639 118.434 282.597 113.329C282.562 109.003 291.231 105.882 292.566 101C297.085 84.4862 280.671 74.4576 267 81.2701C262.232 83.6464 257.714 86.517 253 89z"/>
<path style="fill:#010101; stroke:none;" d="M525 85L521 94C528.446 95.965 532.055 88.9704 525 85M270 92L275 103C281.685 97.8912 278.704 88.0827 270 92z"/>
<path style="fill:#ffffff; stroke:none;" d="M555 90L546.156 121L533 141L543.826 146.669L557.3 131.379L586 114C577.6 103.05 572.08 108.232 562 113C564.583 101.833 567.982 95.4953 555 90M217 117L250 159C267.236 153.152 255.375 143.638 249 134C263.005 126.714 260.749 104.653 244 102.218C233.131 100.637 225.022 111.515 217 117z"/>
<path style="fill:#010101; stroke:none;" d="M515 103L510 114C518.981 116.984 523.065 107.947 515 103M561 113L562 114L561 113M234 117C234.918 118.386 235.767 119.758 236.853 121.025C246.019 131.718 247.299 110.001 234 117z"/>
<path style="fill:#ffffff; stroke:none;" d="M208.09 127.346C204.788 128.235 199.909 134.317 201.752 137.714C205.812 145.203 217.553 152.042 224 157.579C226 159.297 231.984 163.309 230.079 166.623C227.813 170.564 221.758 164.072 220 162.579C215.447 158.711 199.415 140.233 193.286 143.737C190.634 145.253 186.976 149.68 188.176 152.911C189.574 156.673 195.051 160.042 198 162.576C206.044 169.486 217.965 184.77 230 181.199C239.299 178.44 247.652 166.661 242.821 157C239.097 149.552 230.178 143.883 224 138.576C220.696 135.737 212.927 126.042 208.09 127.346z"/>
<path style="fill:#010101; stroke:none;" d="M222 259C228.921 257.871 230.128 249.6 232.781 244C238.999 230.872 247.317 218.268 256.46 207C281.788 175.785 317.002 152.173 356 141.884C403.008 129.482 455.299 134.3 498 158.424C512.37 166.543 525.753 176.093 538 187.17C543.423 192.075 548.259 200.404 556 201C552.296 192.69 544.657 186.857 538 180.95C521.629 166.423 503.111 154.763 483 146.15C405.591 113 311.824 135.357 257 199C242.68 215.623 227.145 237.29 222 259M230 258L374 232.576L548 202C534.845 183.326 512.147 168.828 492 158.753C397.197 111.345 265.855 152.702 230 258z"/>
<path style="fill:#ffffff; stroke:none;" d="M193 207C198.809 209.696 204.478 212.662 210.996 209.991C220.788 205.978 225.277 191.097 217.775 183.185C205.742 170.493 197.612 182.605 185.009 183.045C178.652 183.267 181.979 177.225 189 179L195 168C178.721 158.881 157.13 178.767 173.055 192.66C179.443 198.233 187.62 197.606 195 194.536C198.668 193.01 205.111 188.178 208.248 193.238C209.261 194.871 208.729 196.918 206.833 197.558C199.219 200.125 196.326 196.492 193 207M7 312C15.4465 341.32 40.0603 365.581 48.3627 395C50.8988 403.986 47.0894 416.794 46.169 426C43.8879 448.814 44.3099 473.697 39 496L103 485.424L229 463.25L626 393.576L757 370.576L830 358C822.381 333.922 803.873 310.172 791.694 288C788.12 281.493 781.565 273.771 780.138 266.424C778.57 258.353 783.594 246.028 785.2 238C789.53 216.346 793.796 194.679 798 173L312 258.424L124 291.424L7 312z"/>
<path style="fill:#010101; stroke:none;" d="M549 246L564 243L571.753 286L575.742 301.958L594 300L586.92 260L584.407 243.059L596.958 236.4L596 221L561 227.247L548.042 230.6L549 246M523 234L531 282L530 282L514.756 249L507.786 237.618L487 240L500 316L518 314L510 266C520.611 276.499 526.6 297.492 533 311L554 307L541 231L523 234M433 250L446 326L492 318L490 303C484.204 303.249 468.113 309.254 463.6 305.307C460.547 302.638 460.716 294.798 460 291L484 287C483.538 283.367 483.601 276.44 481.012 273.643C477.487 269.836 461.795 275.391 457 276L456.198 263.317L478.958 256.4L478 242L433 250M384 337C395.919 335.461 416.464 334.801 425.696 326.468C438.824 314.617 431.222 283.048 425.12 269C423.163 264.495 420.113 260.591 415.999 257.854C406.905 251.804 392.885 256.642 383 258.424C380.109 258.946 372.946 259.027 371.774 262.317C369.975 267.367 373.873 277.732 374.753 283C377.734 300.853 382.574 318.957 384 337M342 266C345.221 282.611 348.108 299.314 350.919 316C351.733 320.83 353.941 330.109 346.957 331.508C339.69 332.963 338.573 322.875 337.753 318C334.953 301.353 331.161 284.735 329 268L310 271C310.899 282.38 313.797 293.756 315.75 305C317.137 312.984 318.099 321.22 320.44 329C326.134 347.927 354.29 350.992 366.606 335.957C377.275 322.931 367.24 295.775 364.576 281C363.85 276.977 363.818 266.625 360.4 264.032C356.553 261.112 346.234 264.905 342 266z"/>
<path style="fill:#ffffff; stroke:none;" d="M392 271L401 320C404.721 319.696 409.56 319.359 411.682 315.772C414.573 310.885 412.247 303.206 411.41 298C409.328 285.037 409.567 266.818 392 271z"/>
<path style="fill:#010101; stroke:none;" d="M304 272L256 281L259 297L274 294L284 354L301.933 350.262L301.247 339L295.803 308L294.198 292.434L308 288L304 272M210 345C212.442 372.965 258.142 369.762 262.529 345C264.761 332.4 256.78 320.866 245 317.206C238.42 315.162 229.028 315.161 224.742 308.895C218.41 299.637 233.328 292.766 236 306L254 303C249.846 275.286 205.202 279.033 204.456 306C204.019 321.793 214.081 328.843 228 332.374C234.031 333.904 245.203 337.361 242.218 345.981C237.75 358.878 230.085 343.269 225.775 342.488C221.186 341.657 214.573 344.138 210 345M583 309L596 385L642 377L640 362C633.458 362.135 620.04 367.863 614.317 364.802C611.011 363.035 609.306 352.404 612.407 350.013C616.824 346.608 628.523 346.236 634 346L630.411 332.067L607 335L606.198 322.317L628.958 315.4L628 301L583 309M558 313L560 373L559 373L541 316L521 320L550 393L576 389L579 310L558 313M516 320L499.117 324.6L501.576 345L511 400L530 397L521.424 346L516 320M444 333C445.238 348.556 448.203 347.592 462 347L472 407L491 404L481 343L496 341L493 325L444 333M402 419L422 416C422 412.336 420.927 406.512 423.028 403.314C431.023 391.142 440.638 404.741 443 412L463 408C457.308 391.283 448.82 375.229 441.85 359C439.207 352.848 436.734 342.368 432.006 337.603C428.634 334.205 412.083 337.172 408.6 340.013C404.258 343.554 406.297 354.096 405.83 359C403.954 378.712 402.055 399.197 402 419M398 420L385 344L367.032 347.742L368.414 364L375.92 407L379.742 421.933L398 420M311 356L314 372L328.262 371.693L332.25 388L340 430L359 427L348 366L363 364L361 348L311 356z"/>
<path style="fill:#ffffff; stroke:none;" d="M421 352L421 387L434 385C431.728 376.676 427.873 357.161 421 352z"/>
<path style="fill:#010101; stroke:none;" d="M287 361L301 437L320 434L306 357L287 361z"/>
<path style="fill:#ffffff; stroke:none;" d="M39 499L38 514C63.7328 510.677 89.4579 505.181 115 500.576C122.431 499.236 137.82 493.465 144.907 496.317C152.925 499.544 160.873 516.316 166.435 523C181.112 540.635 197.987 556.612 216 570.789C283.562 623.964 373.177 647.128 458 634.573C548.008 621.25 630.776 570.234 679.946 493C692.954 472.568 704.17 450.844 712.308 428C715.252 419.735 717.07 400.498 723.513 394.738C729.81 389.109 747.774 389.308 756 387.919C782.477 383.448 812.596 381.6 838 373C831.664 353.115 806.361 364.682 791 367.247C743.289 375.214 695.546 383.495 648 392.389C515.283 417.214 381.878 438.467 249 462.424C205.369 470.291 161.63 477.558 118 485.424C92.3348 490.052 65.0384 497.879 39 499z"/>
<path style="fill:#010101; stroke:none;" d="M260 365L268 413C258.251 403.346 250.433 381.02 246 368L224 372L237 448L255 445L247 397L248 397L263.752 430L270.394 441.357L291 439L278 363L260 365M195 377L208 453L227 450L217.753 394L213.258 375.042L195 377M158 493C163.276 504.104 172.71 513.796 180.718 523C203.538 549.227 231.536 571.575 262 588.306C370.791 648.052 507.569 637.681 605 559.996C632.73 537.886 655.806 510.951 674.681 481C690.944 455.195 704.165 425.813 711 396C698.683 397.018 698.266 413.212 694.575 423C684.383 450.026 670.444 475.883 653.105 499C606.823 560.704 538.669 601.928 463 615.576C389.288 628.87 310.518 612.213 248 570.997C223.816 555.053 201.916 535.958 183 514C176.4 506.338 169.497 490.302 158 493M171 491C175.314 501.204 184.5 509.775 191.715 518C215.858 545.523 246.318 567.906 279 584.247C406.916 648.205 564.582 610.397 650.373 496C670.758 468.819 692.939 432.272 698 398C673.555 401.106 649.309 406.694 625 410.753C615.689 412.308 600.261 412.191 592.213 417.164C586.419 420.745 582.964 431.324 579.424 437C571.777 449.258 562.532 460.328 552.83 470.999C523.57 503.181 479.705 524.251 437 530.573C393.728 536.978 348.613 529.624 310 508.691C298.696 502.563 287.999 495.265 278 487.195C273.352 483.444 268.02 476.665 262 475.332C254.233 473.612 242.773 477.9 235 479.25C214.275 482.851 190.901 484.263 171 491M581 418C573.82 421.407 570.898 429.624 566.645 436C559.565 446.614 551.169 457.084 541.996 465.961C509.721 497.194 467.695 516.574 423 520.83C387.788 524.183 351.47 516.488 320 500.753C309.15 495.328 298.592 488.779 289 481.335C284.156 477.575 279.588 471.545 273 473C283.775 487.98 304.848 498.172 321 506.247C386.367 538.926 469.6 529.966 527 484.789C543.962 471.44 558.527 455.858 570.656 438C574.243 432.719 581.065 424.548 581 418M282 471C293.684 486.267 316.602 496.81 334 503.989C397.164 530.052 471.52 519.637 525 476.996C542.208 463.276 565.56 441.884 572 420L282 471z"/>
<path style="fill:#ffffff; stroke:none;" d="M754 456C750.406 464.747 758.521 476.547 743 476L751 454C745.295 452.397 738.507 450.486 733.094 454.009C721.892 461.301 727.641 476.644 738 481.045C754.886 488.218 769.465 467.517 754 456z"/>
<path style="fill:#010101; stroke:none;" d="M738 473L744 459C734.18 456.334 729.409 467.702 738 473z"/>
<path style="fill:#ffffff; stroke:none;" d="M717 485L716 489L721 491L722 488L747 499L749 493L726 482C726.882 477.814 726.338 475.947 722 475L721 479C717.371 476.918 716.788 475.111 717 471C705.59 468.596 709.583 481.708 717 485M703 487C700.806 491.844 702.349 493.884 707 496C708.887 491.192 707.948 488.74 703 487M713 493L711 499L739 514L741 508L713 493M523 587C532.663 582.836 549.367 575.764 554.312 565.996C561.101 552.585 545.959 534.132 539.573 523C536.878 518.303 534.08 513.029 528.996 510.573C518.951 505.72 507.539 513.096 499 517.86C496.268 519.384 489.895 521.574 489.542 525.213C488.719 533.716 502.023 549.62 506.14 557C511.724 567.011 517.015 577.221 523 587M686 514L685.657 520.484L696 527.692L721 543L735 518L730 516L719 534C710.151 527.199 697.01 516.129 686 514z"/>
<path style="fill:#010101; stroke:none;" d="M511 527C512.561 532.419 515.553 537.075 518.231 542L524.306 553C526.162 556.381 537.596 573.098 537.639 558.996C537.653 554.467 533.971 549.784 531.86 546C526.902 537.112 523.253 523.227 511 527z"/>
<path style="fill:#ffffff; stroke:none;" d="M478 561L477 561L459 533L441 538L460 607L477 603L467 571L468 571C471.195 577.755 479.952 595.722 487.184 598.357C491.709 600.005 499.539 596.257 504 595L485 526C481.156 526.518 472.469 527.301 470.068 530.728C466.39 535.977 476.598 554.941 478 561M350 533C343.051 554.975 339.955 581.12 337 604L355 607C355.242 601.379 356.08 582.082 361.314 579.117C365.747 576.607 375.111 580.611 380 581L383 566L363 563L364 551L387 555L389 540L350 533M139 577L139 578L142 582C157.061 577.814 165.928 549.535 180 568C190.403 562.733 173.787 549.923 169.011 545.001C167.137 543.07 164.123 538.471 160.974 538.921C153.346 540.011 165.266 550.264 163.364 553.985C158.922 562.676 145.995 570.15 139 577M420 539C420.04 553.663 421.977 568.316 422 583C422.007 587.212 424.009 595.742 418.87 597.824C412.785 600.289 412.019 590.529 412.001 587C411.918 571.319 410 555.689 410 540L392 541C392.966 553.242 393.999 565.712 394 578C394.001 586.001 393.396 596.878 397.533 603.985C405.289 617.31 431.955 616.166 438.347 602C441.906 594.114 439.958 583.285 439.17 575C438.047 563.199 438 550.86 438 539L420 539M669 541L670 555L676 555C679.536 557.339 682.74 560.042 686 562.753C689.04 565.28 692.743 569.331 696.996 569.427C700.115 569.498 704.901 565.895 702.863 562.374C701.483 559.989 696.383 561.325 694 559.798C690.757 557.72 685.753 554.124 683.858 550.714C682.763 548.745 683.893 545.435 681.647 544.171C679.63 543.036 678.242 544.783 677 546L669 541z"/>
<path style="fill:#010101; stroke:none;" d="M478.333 561.667L478.667 562.333L478.333 561.667z"/>
<path style="fill:#ffffff; stroke:none;" d="M656 573C650.06 572.908 650.78 577.335 654.063 581C659.544 587.116 666.188 592.192 672 598L673 598L677 594L677 593C672.296 588.296 664.998 583.128 662.198 577C660.598 573.496 662.802 568.411 667.005 568.117C673.366 567.673 681.911 579.911 686 584L687 584L691 580C683.636 569.546 659.785 547.861 656 573M182 580C183.676 578.181 194.871 561.93 184.996 566.752C177.326 570.497 170.792 581.796 165.025 588C163.102 590.068 156.256 596.308 160.376 599.248C167.764 604.521 177.366 574.635 186.468 588.113C190.405 593.941 178.973 601.795 175.998 606C174.603 607.971 172.733 612.793 177.063 612.793C180.851 612.793 184.242 607.526 186.424 605C194.262 595.926 200.142 580.439 182 580z"/>
<path style="fill:#010101; stroke:none;" d="M466 569L467 570L466 569z"/>
<path style="fill:#ffffff; stroke:none;" d="M661 595C654.49 598.284 652.131 618.739 642 606L658 594C653.065 576.564 626.314 584.172 630.532 602C633.604 614.983 651.58 623.381 659.991 609.96C662.864 605.374 661.929 600.003 661 595M614 590L610 593L618 606C615.386 606.008 612.498 605.762 610.015 606.742C587.022 615.819 623.542 655.743 633 628C640.777 628.755 637.397 622.071 634.655 618C628.603 609.015 622.342 596.894 614 590z"/>
<path style="fill:#010101; stroke:none;" d="M637 602L650 592C641.512 588.409 634.81 592.437 637 602z"/>
<path style="fill:#ffffff; stroke:none;" d="M212 629C207.403 619.974 191.708 628.799 196 612C198.958 614.348 201.976 616.611 205 618.873C207.326 620.614 210.726 624.141 213.895 623.883C219.425 623.433 220.457 613.002 219.655 609C218.093 601.209 210.182 598.207 203 599.189C199.879 599.616 197.347 601.01 195.043 603.133C192.663 605.328 190.653 608.021 189.367 611C182.894 626.003 199.688 635.454 212 629z"/>
<path style="fill:#010101; stroke:none;" d="M200 607L213 617C215.216 607.553 208.573 602.875 200 607M616.004 610.917C603.259 611.974 612.144 632.511 621.995 631.214C634.021 629.631 625.332 610.143 616.004 610.917z"/>
<path style="fill:#ffffff; stroke:none;" d="M249 612L229 651C236.511 655.384 245.978 661.734 255 660.894C269.318 659.562 279.301 639.527 272.431 627.015C268.174 619.261 256.778 615.238 249 612M589 621C591.627 627.308 598.66 635.043 598.639 641.999C598.623 647.179 593.228 650.507 589.213 646.808C584.205 642.194 581.137 633.963 578 628L572 630C574.095 637.258 579.366 648.606 585.21 653.566C591.825 659.181 600.582 654.049 603 647L610 647L595 618L589 621z"/>
<path style="fill:#010101; stroke:none;" d="M252 621L238 649C243.108 651.126 249.219 655.975 255 654.332C263.025 652.05 270.559 638.943 266.681 631.004C263.984 625.481 257.591 622.611 252 621z"/>
<path style="fill:#ffffff; stroke:none;" d="M554 639L556 644L561 643C564.149 653.935 568.797 668.153 582 662L580 657C571.519 657.272 569.321 645.23 566 639L570 638L569 633L563 634L560 627L554 639M285 630L283 637L289 639L291 632L285 630M526 668C530.405 684.862 559.334 680.857 559.941 664C560.782 640.65 535.39 660.226 528.662 649.851C525.745 645.353 532.129 640.737 536 639.909C540.401 638.968 543.402 641.942 546 645L552 643C547.538 629.142 523.729 630.221 521.225 645.001C520.899 646.922 520.912 649.076 521.214 650.999C523.857 667.85 542.481 653.073 550.767 659.603C557.934 665.252 545.642 673.212 540.001 672.381C534.081 671.509 532.69 666.827 526 668M280 641L269 671C279.022 673.11 284.01 650.707 287 643L280 641M324 644C323.121 649.013 323.57 651.375 329 652L330 645L324 644M290 645C290 652.442 286.437 672.389 291.028 678.292C293.993 682.105 298.436 678.429 300.714 675.977C306.766 669.46 313.921 661.905 318 654L311 652L296 671C296 663.32 299.586 646.999 290 645M490 660L486 661L491.983 670.058L497 691C508.161 690.13 498.813 674.854 498.611 668.043C498.528 665.247 502.098 662.769 501.251 660.217C500.439 657.772 497.75 658.601 496 659C495.798 655.093 496.094 653.212 500 652L499 646C490.544 646.767 487.648 652.039 490 660M365 653L364 660L370 661L371 654L365 653M321 655C319.055 663.483 307.858 684.388 319 688C320.697 679.799 332.142 658.008 321 655M327 679C327.3 693.03 350.982 701.502 353.362 684.999C354.337 678.237 347.73 675.907 343.005 673.204C341.242 672.194 337.386 670.071 338.921 667.458C342.215 661.852 351.067 672.548 355 673C354.71 661.005 335.127 653.013 331.438 667.004C329.366 674.859 336.756 677.018 341.976 680.352C343.933 681.602 346.881 684.01 344.534 686.397C339.132 691.889 332.359 679.615 327 679M468 663.533C449.146 668.086 456.525 701.106 476 696.466C495.016 691.935 487.607 658.798 468 663.533M363 665L358 696L365 697L369 665L363 665M382.001 667.742C364.143 674.6 373.802 707.384 393.985 698.991C411.235 691.818 401.549 660.235 382.001 667.742M415 671L408 669L408 701L415 701C413.812 694.599 412.32 685.04 415.457 679.018C417.345 675.393 421.857 672.239 425.566 675.554C430.573 680.028 428 693.861 428 700L435 700C433.499 691.916 436.234 681.562 433.258 674.015C430.417 666.813 420.075 666.245 415 671z"/>
<path style="fill:#010101; stroke:none;" d="M468.109 670.029C459.044 675.052 465.302 695.647 475.945 689.971C485.687 684.777 478.651 664.186 468.109 670.029M386.015 672.786C375.47 676.264 377.995 698.289 389.956 694.066C399.436 690.72 397.313 669.06 386.015 672.786z"/>
</svg>
